<?xml version="1.0" encoding="UTF-8" standalone="no"?>
<svg
   xmlns:dc="http://purl.org/dc/elements/1.1/"
   xmlns:cc="http://creativecommons.org/ns#"
   xmlns:rdf="http://www.w3.org/1999/02/22-rdf-syntax-ns#"
   xmlns:svg="http://www.w3.org/2000/svg"
   xmlns="http://www.w3.org/2000/svg"
   xmlns:sodipodi="http://sodipodi.sourceforge.net/DTD/sodipodi-0.dtd"
   xmlns:inkscape="http://www.inkscape.org/namespaces/inkscape"
   id="Layer_3"
   enable-background="new 0 0 64 64"
   height="80"
   viewBox="0 0 8.75 10"
   width="70"
   version="1.1"
   sodipodi:docname="armour.svg"
   inkscape:version="0.92.5 (2060ec1f9f, 2020-04-08)">
  <metadata
     id="metadata11">
    <rdf:RDF>
      <cc:Work
         rdf:about="">
        <dc:format>image/svg+xml</dc:format>
        <dc:type
           rdf:resource="http://purl.org/dc/dcmitype/StillImage" />
        <dc:title></dc:title>
      </cc:Work>
    </rdf:RDF>
  </metadata>
  <defs
     id="defs9" />
  <sodipodi:namedview
     pagecolor="#ffffff"
     bordercolor="#666666"
     borderopacity="1"
     objecttolerance="10"
     gridtolerance="10"
     guidetolerance="10"
     inkscape:pageopacity="0"
     inkscape:pageshadow="2"
     inkscape:window-width="1567"
     inkscape:window-height="868"
     id="namedview7"
     showgrid="false"
     inkscape:zoom="8.725"
     inkscape:cx="22.856085"
     inkscape:cy="44.355301"
     inkscape:window-x="33"
     inkscape:window-y="0"
     inkscape:window-maximized="1"
     inkscape:current-layer="Layer_3" />
  <g
     id="g820"
     transform="matrix(0.16129032,0,0,0.16129032,-0.78629024,-0.16129032)">
    <path
       id="path2"
       d="M 35,14 H 29 L 27,2 h 10 z"
       inkscape:connector-curvature="0"
       style="fill:#f4b2b0" />
    <path
       id="path4"
       d="m 12.02,38.196 c 0.081,0.407 0.406,0.722 0.815,0.79 l 0.987,0.165 C 16.243,39.554 18,41.628 18,44.083 v 0.101 c 0,0.991 -0.29,1.95 -0.84,2.774 l -0.992,1.488 c -0.133,0.2 -0.19,0.441 -0.16,0.679 l 0.07,0.56 c 0.631,5.051 3.132,9.626 7.041,12.884 l 0.24,0.2 C 23.539,62.918 23.766,63 24,63 h 2 c 0.409,0 0.776,-0.249 0.929,-0.628 l 2,-5 c 0.06,-0.149 0.082,-0.311 0.066,-0.471 l -2,-20 C 26.961,36.56 26.754,36.259 26.447,36.106 L 26.005,35.885 C 23.049,34.407 20.758,31.99 19.449,29.001 h 8.016 l 1.497,2.245 -0.954,7.631 c -0.038,0.306 0.066,0.613 0.285,0.831 l 3,3 c 0.391,0.391 1.023,0.391 1.414,0 l 3,-3 c 0.219,-0.218 0.323,-0.525 0.285,-0.831 L 35.038,31.246 36.535,29 h 8.016 c -1.309,2.99 -3.6,5.406 -6.556,6.884 l -0.442,0.221 c -0.307,0.153 -0.514,0.454 -0.548,0.795 l -2,20 c -0.016,0.16 0.007,0.322 0.066,0.471 l 2,5 C 37.224,62.751 37.591,63 38,63 h 2 c 0.234,0 0.461,-0.082 0.641,-0.232 l 0.24,-0.2 c 3.909,-3.257 6.41,-7.833 7.041,-12.883 l 0.07,-0.56 c 0.03,-0.238 -0.027,-0.479 -0.16,-0.679 L 46.84,46.958 C 46.29,46.133 46,45.174 46,44.183 v -0.101 c 0,-2.454 1.757,-4.528 4.179,-4.932 l 0.986,-0.165 c 0.409,-0.068 0.734,-0.383 0.815,-0.79 L 52.145,37.37 C 52.713,34.538 53,31.635 53,28.742 v -0.184 c 0,-2.418 -0.201,-4.852 -0.599,-7.233 l -0.415,-2.49 c -0.067,-0.405 -0.375,-0.727 -0.776,-0.813 -0.405,-0.088 -0.814,0.082 -1.042,0.423 l -0.372,0.558 C 47.693,13.055 43.045,8.515 37.219,6.771 L 37.987,2.164 C 38.036,1.874 37.954,1.578 37.763,1.353 37.573,1.129 37.294,1 37,1 H 27 c -0.294,0 -0.573,0.129 -0.763,0.354 -0.19,0.225 -0.272,0.521 -0.224,0.811 l 0.768,4.607 C 20.955,8.515 16.306,13.056 14.204,19.004 l -0.372,-0.558 c -0.228,-0.341 -0.638,-0.511 -1.042,-0.423 -0.401,0.086 -0.709,0.408 -0.776,0.813 l -0.415,2.49 C 11.201,23.707 11,26.14 11,28.559 v 0.184 c 0,2.893 0.287,5.796 0.854,8.629 z M 31,3 v 8 h 2 V 3 h 2.819 L 34.153,13 H 29.846 L 28.181,3 Z m -3.888,5.755 0.902,5.41 C 28.094,14.646 28.511,15 29,15 h 6 c 0.489,0 0.906,-0.354 0.986,-0.835 l 0.902,-5.41 c 5.377,1.699 9.599,6.096 11.305,11.781 C 47.626,20.836 46.987,21 46.324,21 h -0.396 c -0.494,0 -0.977,-0.09 -1.436,-0.267 L 32.358,16.066 c -0.232,-0.089 -0.486,-0.089 -0.719,0 L 19.505,20.733 C 19.048,20.91 18.565,21 18.071,21 H 17.675 C 17.012,21 16.374,20.836 15.807,20.536 17.513,14.851 21.735,10.454 27.112,8.755 Z M 13,28.559 c 0,-2.309 0.192,-4.631 0.571,-6.904 l 0.04,-0.24 C 14.706,22.424 16.149,23 17.676,23 h 0.396 c 0.741,0 1.466,-0.135 2.154,-0.4 L 32,18.071 43.774,22.6 c 0.688,0.266 1.413,0.4 2.154,0.4 h 0.396 c 1.526,0 2.97,-0.576 4.064,-1.585 l 0.04,0.24 C 50.808,23.927 51,26.25 51,28.559 v 0.184 c 0,2.761 -0.274,5.533 -0.815,8.237 l -0.029,0.148 -0.306,0.051 C 46.46,37.743 44,40.646 44,44.083 v 0.101 c 0,1.387 0.406,2.729 1.176,3.883 l 0.785,1.179 -0.023,0.191 c -0.109,0.873 -0.299,1.723 -0.529,2.559 l -3.702,-3.702 -1.414,1.414 4.401,4.401 c -0.303,0.73 -0.659,1.434 -1.055,2.117 l -3.932,-3.932 -1.414,1.414 4.22,4.22 c -0.833,1.12 -1.785,2.159 -2.876,3.073 H 38.676 L 37.019,56.857 38.94,37.649 c 3.798,-1.916 6.628,-5.19 7.973,-9.226 l 0.035,-0.105 c 0.103,-0.305 0.051,-0.64 -0.137,-0.901 C 46.623,27.154 46.321,27 46,27 H 36 c -0.334,0 -0.646,0.167 -0.832,0.445 l -2,3 c -0.133,0.2 -0.19,0.44 -0.16,0.679 l 0.939,7.515 -1.947,1.947 -1.947,-1.947 0.939,-7.515 c 0.03,-0.238 -0.027,-0.479 -0.16,-0.679 l -2,-3 C 28.646,27.167 28.334,27 28,27 H 18 c -0.321,0 -0.623,0.154 -0.812,0.416 -0.188,0.261 -0.239,0.596 -0.137,0.901 l 0.035,0.105 c 1.345,4.037 4.175,7.311 7.973,9.227 L 26.98,56.857 25.323,61 h -0.961 c -1.091,-0.914 -2.043,-1.953 -2.876,-3.073 l 4.22,-4.22 -1.414,-1.414 -3.932,3.932 c -0.396,-0.683 -0.752,-1.387 -1.055,-2.117 l 4.401,-4.401 -1.414,-1.414 -3.702,3.702 c -0.23,-0.836 -0.42,-1.686 -0.529,-2.559 l -0.023,-0.19 0.785,-1.179 C 19.594,46.913 20,45.57 20,44.183 v -0.101 c 0,-3.436 -2.46,-6.34 -5.849,-6.904 L 13.844,37.127 13.815,36.979 C 13.274,34.275 13,31.503 13,28.742 Z"
       inkscape:connector-curvature="0"
       style="fill:#b3404a" />
  </g>
</svg>
